<mxfile host="app.diagrams.net" modified="2020-06-17T23:46:39.665Z" agent="5.0 (Macintosh; Intel Mac OS X 10_13_6) AppleWebKit/537.36 (KHTML, like Gecko) Chrome/83.0.4103.106 Safari/537.36" etag="YpSuAiaMfnbWyRe8YKLx" version="13.2.6" type="github" pages="6">
  <diagram name="General" id="e7e014a7-5840-1c2e-5031-d8a46d1fe8dd">
    <mxGraphModel dx="946" dy="542" grid="1" gridSize="10" guides="1" tooltips="1" connect="1" arrows="1" fold="1" page="1" pageScale="1" pageWidth="1169" pageHeight="826" background="#ffffff" math="0" shadow="0">
      <root>
        <mxCell id="0" />
        <mxCell id="1" parent="0" />
        <mxCell id="2" value="Municipio" style="swimlane;whiteSpace=wrap" parent="1" vertex="1">
          <mxGeometry x="160" y="50" width="280" height="700" as="geometry" />
        </mxCell>
        <mxCell id="c2A3ZHDiBDlbO9rzpb1V-43" style="edgeStyle=orthogonalEdgeStyle;rounded=0;orthogonalLoop=1;jettySize=auto;html=1;" parent="2" source="c2A3ZHDiBDlbO9rzpb1V-41" target="c2A3ZHDiBDlbO9rzpb1V-42" edge="1">
          <mxGeometry relative="1" as="geometry" />
        </mxCell>
        <mxCell id="c2A3ZHDiBDlbO9rzpb1V-46" style="edgeStyle=orthogonalEdgeStyle;rounded=0;orthogonalLoop=1;jettySize=auto;html=1;entryX=0.5;entryY=0;entryDx=0;entryDy=0;" parent="2" source="c2A3ZHDiBDlbO9rzpb1V-41" target="c2A3ZHDiBDlbO9rzpb1V-45" edge="1">
          <mxGeometry relative="1" as="geometry" />
        </mxCell>
        <mxCell id="c2A3ZHDiBDlbO9rzpb1V-41" value="Presup Ingresos" style="ellipse;whiteSpace=wrap;html=1;" parent="2" vertex="1">
          <mxGeometry x="62.5" y="270" width="115" height="38" as="geometry" />
        </mxCell>
        <mxCell id="c2A3ZHDiBDlbO9rzpb1V-48" value="" style="edgeStyle=orthogonalEdgeStyle;rounded=0;orthogonalLoop=1;jettySize=auto;html=1;" parent="2" source="c2A3ZHDiBDlbO9rzpb1V-42" target="c2A3ZHDiBDlbO9rzpb1V-47" edge="1">
          <mxGeometry relative="1" as="geometry" />
        </mxCell>
        <mxCell id="c2A3ZHDiBDlbO9rzpb1V-42" value="Presup Egresos" style="ellipse;whiteSpace=wrap;html=1;" parent="2" vertex="1">
          <mxGeometry x="147.5" y="360" width="115" height="38" as="geometry" />
        </mxCell>
        <mxCell id="c2A3ZHDiBDlbO9rzpb1V-47" value="Operaci칩n Egresos" style="ellipse;whiteSpace=wrap;html=1;" parent="2" vertex="1">
          <mxGeometry x="147.5" y="478" width="115" height="38" as="geometry" />
        </mxCell>
        <mxCell id="c2A3ZHDiBDlbO9rzpb1V-49" style="edgeStyle=orthogonalEdgeStyle;rounded=0;orthogonalLoop=1;jettySize=auto;html=1;entryX=0;entryY=0.5;entryDx=0;entryDy=0;dashed=1;" parent="2" source="c2A3ZHDiBDlbO9rzpb1V-45" target="c2A3ZHDiBDlbO9rzpb1V-47" edge="1">
          <mxGeometry relative="1" as="geometry">
            <Array as="points">
              <mxPoint x="68" y="497" />
            </Array>
          </mxGeometry>
        </mxCell>
        <mxCell id="c2A3ZHDiBDlbO9rzpb1V-45" value="Operaci칩n Ingresos" style="ellipse;whiteSpace=wrap;html=1;" parent="2" vertex="1">
          <mxGeometry x="17.5" y="360" width="115" height="38" as="geometry" />
        </mxCell>
        <mxCell id="3" value="Administrador" style="swimlane;whiteSpace=wrap" parent="1" vertex="1">
          <mxGeometry x="445" y="50" width="280" height="700" as="geometry" />
        </mxCell>
        <mxCell id="c2A3ZHDiBDlbO9rzpb1V-58" style="edgeStyle=orthogonalEdgeStyle;rounded=0;orthogonalLoop=1;jettySize=auto;html=1;" parent="3" source="c2A3ZHDiBDlbO9rzpb1V-50" target="c2A3ZHDiBDlbO9rzpb1V-51" edge="1">
          <mxGeometry relative="1" as="geometry" />
        </mxCell>
        <mxCell id="c2A3ZHDiBDlbO9rzpb1V-50" value="Cat치logos" style="ellipse;whiteSpace=wrap;html=1;" parent="3" vertex="1">
          <mxGeometry x="55" y="100" width="115" height="40" as="geometry" />
        </mxCell>
        <mxCell id="5" value="" style="ellipse;shape=startState;fillColor=#000000;strokeColor=#ff0000;" parent="3" vertex="1">
          <mxGeometry x="97.5" y="32" width="30" height="30" as="geometry" />
        </mxCell>
        <mxCell id="6" value="" style="edgeStyle=elbowEdgeStyle;elbow=horizontal;verticalAlign=bottom;endArrow=open;endSize=8;strokeColor=#FF0000;endFill=1;rounded=0" parent="3" source="5" target="c2A3ZHDiBDlbO9rzpb1V-50" edge="1">
          <mxGeometry x="-200" y="40" as="geometry">
            <mxPoint x="-184.5" y="110" as="targetPoint" />
          </mxGeometry>
        </mxCell>
        <mxCell id="c2A3ZHDiBDlbO9rzpb1V-51" value="Apertura Ejercicio" style="ellipse;whiteSpace=wrap;html=1;" parent="3" vertex="1">
          <mxGeometry x="42.5" y="180" width="140" height="41" as="geometry" />
        </mxCell>
        <mxCell id="c2A3ZHDiBDlbO9rzpb1V-60" value="Cierre Ejercicio" style="ellipse;whiteSpace=wrap;html=1;" parent="3" vertex="1">
          <mxGeometry x="55" y="560" width="140" height="41" as="geometry" />
        </mxCell>
        <mxCell id="3xCkwqfMUm5mCVxn1FG2-6" value="Informes Financieros" style="rounded=1;whiteSpace=wrap;html=1;" vertex="1" parent="3">
          <mxGeometry x="75" y="303" width="120" height="60" as="geometry" />
        </mxCell>
        <mxCell id="3xCkwqfMUm5mCVxn1FG2-7" value="Activos Fijos" style="rounded=1;whiteSpace=wrap;html=1;" vertex="1" parent="3">
          <mxGeometry x="75" y="450" width="120" height="60" as="geometry" />
        </mxCell>
        <mxCell id="3xCkwqfMUm5mCVxn1FG2-8" style="edgeStyle=orthogonalEdgeStyle;rounded=0;orthogonalLoop=1;jettySize=auto;html=1;entryX=1;entryY=0.5;entryDx=0;entryDy=0;dashed=1;" edge="1" parent="3" source="c2A3ZHDiBDlbO9rzpb1V-60" target="c2A3ZHDiBDlbO9rzpb1V-51">
          <mxGeometry relative="1" as="geometry">
            <mxPoint x="235" y="200" as="targetPoint" />
            <Array as="points">
              <mxPoint x="245" y="581" />
              <mxPoint x="245" y="201" />
            </Array>
          </mxGeometry>
        </mxCell>
        <mxCell id="c2A3ZHDiBDlbO9rzpb1V-59" style="edgeStyle=orthogonalEdgeStyle;rounded=0;orthogonalLoop=1;jettySize=auto;html=1;" parent="1" source="c2A3ZHDiBDlbO9rzpb1V-51" target="c2A3ZHDiBDlbO9rzpb1V-41" edge="1">
          <mxGeometry relative="1" as="geometry" />
        </mxCell>
        <mxCell id="c2A3ZHDiBDlbO9rzpb1V-61" style="edgeStyle=orthogonalEdgeStyle;rounded=0;orthogonalLoop=1;jettySize=auto;html=1;entryX=0;entryY=0.5;entryDx=0;entryDy=0;" parent="1" source="c2A3ZHDiBDlbO9rzpb1V-47" target="c2A3ZHDiBDlbO9rzpb1V-60" edge="1">
          <mxGeometry relative="1" as="geometry">
            <Array as="points">
              <mxPoint x="365" y="631" />
            </Array>
          </mxGeometry>
        </mxCell>
      </root>
    </mxGraphModel>
  </diagram>
  <diagram id="hrA1E_-m3naeNrfhOauk" name="Catalogos">
    <mxGraphModel dx="946" dy="542" grid="1" gridSize="10" guides="1" tooltips="1" connect="1" arrows="1" fold="1" page="1" pageScale="1" pageWidth="827" pageHeight="1169" math="0" shadow="0">
      <root>
        <mxCell id="ExdAea3PpR9MVhZcuPpV-0" />
        <mxCell id="ExdAea3PpR9MVhZcuPpV-1" parent="ExdAea3PpR9MVhZcuPpV-0" />
        <mxCell id="ExdAea3PpR9MVhZcuPpV-2" value="&lt;h1&gt;&lt;font style=&quot;font-size: 16px&quot;&gt;Registro Catalogos&lt;/font&gt;&lt;/h1&gt;&lt;div style=&quot;font-size: 16px&quot;&gt;&lt;font style=&quot;font-size: 16px&quot;&gt;- Plan de Cuentas&lt;/font&gt;&lt;/div&gt;&lt;div style=&quot;font-size: 16px&quot;&gt;&lt;font style=&quot;font-size: 16px&quot;&gt;- Clasificador de Objeto del Gasto&lt;/font&gt;&lt;/div&gt;&lt;div style=&quot;font-size: 16px&quot;&gt;&lt;font style=&quot;font-size: 16px&quot;&gt;- Clasificador por rubro de Ingreso&lt;/font&gt;&lt;/div&gt;&lt;div style=&quot;font-size: 16px&quot;&gt;&lt;font style=&quot;font-size: 16px&quot;&gt;- Fuentes de Financiamiento&lt;/font&gt;&lt;/div&gt;&lt;div style=&quot;font-size: 16px&quot;&gt;&lt;font style=&quot;font-size: 16px&quot;&gt;- Unidades Administrativas&lt;/font&gt;&lt;/div&gt;" style="text;html=1;strokeColor=none;fillColor=none;spacing=5;spacingTop=-20;whiteSpace=wrap;overflow=hidden;rounded=0;" vertex="1" parent="ExdAea3PpR9MVhZcuPpV-1">
          <mxGeometry x="360" y="20" width="300" height="170" as="geometry" />
        </mxCell>
      </root>
    </mxGraphModel>
  </diagram>
  <diagram id="MeoF-F-MIiQFU7cTWDLd" name="Presup Ingresos">
    <mxGraphModel dx="946" dy="542" grid="1" gridSize="10" guides="1" tooltips="1" connect="1" arrows="1" fold="1" page="1" pageScale="1" pageWidth="827" pageHeight="1169" math="0" shadow="0">
      <root>
        <mxCell id="RjHAnYeN_uuHCmUORzNF-0" />
        <mxCell id="RjHAnYeN_uuHCmUORzNF-1" parent="RjHAnYeN_uuHCmUORzNF-0" />
        <mxCell id="RjHAnYeN_uuHCmUORzNF-2" value="&lt;h1&gt;Presup de Ingresos&lt;/h1&gt;&lt;div style=&quot;font-size: 16px&quot;&gt;&lt;font style=&quot;font-size: 16px&quot;&gt;Estimado de Ingresos&lt;/font&gt;&lt;/div&gt;&lt;div style=&quot;font-size: 16px&quot;&gt;&lt;font style=&quot;font-size: 16px&quot;&gt;Aumento/Disminuci칩n de Presupuesto&lt;/font&gt;&lt;/div&gt;&lt;div style=&quot;font-size: 16px&quot;&gt;&lt;font style=&quot;font-size: 16px&quot;&gt;Ingresos Autodeterminables&lt;/font&gt;&lt;/div&gt;&lt;div style=&quot;font-size: 16px&quot;&gt;&lt;font style=&quot;font-size: 16px&quot;&gt;&lt;br&gt;&lt;/font&gt;&lt;/div&gt;&lt;div style=&quot;font-size: 16px&quot;&gt;&lt;font style=&quot;font-size: 16px&quot;&gt;Procedimiento *&lt;/font&gt;&lt;/div&gt;" style="text;html=1;strokeColor=none;fillColor=none;spacing=5;spacingTop=-20;whiteSpace=wrap;overflow=hidden;rounded=0;" vertex="1" parent="RjHAnYeN_uuHCmUORzNF-1">
          <mxGeometry x="240" y="170" width="320" height="250" as="geometry" />
        </mxCell>
      </root>
    </mxGraphModel>
  </diagram>
  <diagram id="Nwwx8mQUQ-VfXit5uhN_" name="Presup de Egresos">
    <mxGraphModel dx="946" dy="542" grid="1" gridSize="10" guides="1" tooltips="1" connect="1" arrows="1" fold="1" page="1" pageScale="1" pageWidth="827" pageHeight="1169" math="0" shadow="0">
      <root>
        <mxCell id="_ZV1dw4JglMx1sqY91d7-0" />
        <mxCell id="_ZV1dw4JglMx1sqY91d7-1" parent="_ZV1dw4JglMx1sqY91d7-0" />
        <mxCell id="_ZV1dw4JglMx1sqY91d7-2" value="&lt;h1&gt;Presup Egresos&lt;/h1&gt;&lt;div&gt;Egresos Aprobados&lt;/div&gt;&lt;div&gt;Aumento/Disminuci칩n&lt;/div&gt;&lt;div&gt;Cambios Presupuestales&lt;/div&gt;&lt;div&gt;&lt;br&gt;&lt;/div&gt;&lt;div&gt;Metas&lt;/div&gt;&lt;div&gt;&lt;br&gt;&lt;/div&gt;&lt;div&gt;Procedimiento *&lt;/div&gt;" style="text;html=1;strokeColor=none;fillColor=none;spacing=5;spacingTop=-20;whiteSpace=wrap;overflow=hidden;rounded=0;" vertex="1" parent="_ZV1dw4JglMx1sqY91d7-1">
          <mxGeometry x="370" y="139" width="230" height="231" as="geometry" />
        </mxCell>
      </root>
    </mxGraphModel>
  </diagram>
  <diagram id="bGMa4z0_crjmZn1XvkzO" name="Operacion Ingresos">
    <mxGraphModel dx="946" dy="542" grid="1" gridSize="10" guides="1" tooltips="1" connect="1" arrows="1" fold="1" page="1" pageScale="1" pageWidth="827" pageHeight="1169" math="0" shadow="0">
      <root>
        <mxCell id="ClJPu02gfxGe4U_nf1wf-0" />
        <mxCell id="ClJPu02gfxGe4U_nf1wf-1" parent="ClJPu02gfxGe4U_nf1wf-0" />
        <mxCell id="ClJPu02gfxGe4U_nf1wf-2" value="&lt;h1&gt;Operaci칩n Ingresos&lt;/h1&gt;&lt;div&gt;Ingresos Devengados&lt;/div&gt;&lt;div&gt;Ingresos Recaudados&lt;/div&gt;&lt;div&gt;Devengado/Recaudado&lt;/div&gt;&lt;div&gt;Autodeterminables&lt;/div&gt;&lt;div&gt;&lt;br&gt;&lt;/div&gt;&lt;div&gt;Concialiciones Bancarias&lt;/div&gt;" style="text;html=1;strokeColor=none;fillColor=none;spacing=5;spacingTop=-20;whiteSpace=wrap;overflow=hidden;rounded=0;" vertex="1" parent="ClJPu02gfxGe4U_nf1wf-1">
          <mxGeometry x="290" y="140" width="320" height="120" as="geometry" />
        </mxCell>
      </root>
    </mxGraphModel>
  </diagram>
  <diagram id="uE-F0Q37xRBDAULDjamf" name="Page-6">
    <mxGraphModel dx="946" dy="542" grid="1" gridSize="10" guides="1" tooltips="1" connect="1" arrows="1" fold="1" page="1" pageScale="1" pageWidth="827" pageHeight="1169" math="0" shadow="0">
      <root>
        <mxCell id="sHHOiTrqVNneiASACwXv-0" />
        <mxCell id="sHHOiTrqVNneiASACwXv-1" parent="sHHOiTrqVNneiASACwXv-0" />
        <mxCell id="sHHOiTrqVNneiASACwXv-2" value="&lt;h1&gt;Operacion Egresos&lt;/h1&gt;&lt;p&gt;- Comprometido (Contratos, Orden Compra)&lt;/p&gt;&lt;p&gt;- Devengado (Devengado)&amp;nbsp;&lt;/p&gt;&lt;p&gt;- Ejercido / Pagado&amp;nbsp; (Pagado)&lt;/p&gt;&lt;p&gt;- Registro Simult치neo&lt;/p&gt;&lt;p&gt;- Cuentas por Comprobar (--)&lt;/p&gt;&lt;p&gt;- Control Obras&lt;/p&gt;&lt;p&gt;&lt;br&gt;&lt;/p&gt;" style="text;html=1;strokeColor=none;fillColor=none;spacing=5;spacingTop=-20;whiteSpace=wrap;overflow=hidden;rounded=0;" vertex="1" parent="sHHOiTrqVNneiASACwXv-1">
          <mxGeometry x="230" y="101" width="320" height="280" as="geometry" />
        </mxCell>
      </root>
    </mxGraphModel>
  </diagram>
</mxfile>
